<mxfile host="app.diagrams.net" modified="2024-08-02T06:04:35.600Z" agent="Mozilla/5.0 (Windows NT 10.0; Win64; x64; rv:128.0) Gecko/20100101 Firefox/128.0" etag="3kGYInOhnlvklOQAcY0G" version="24.0.0" type="device">
  <diagram name="第 1 页" id="O5Rs_0LhTfwY3xeI6bNT">
    <mxGraphModel dx="1594" dy="1580" grid="1" gridSize="10" guides="1" tooltips="1" connect="1" arrows="1" fold="1" page="1" pageScale="1" pageWidth="827" pageHeight="1169" math="0" shadow="0">
      <root>
        <mxCell id="0" />
        <mxCell id="1" parent="0" />
        <mxCell id="j6VodlIpWfJqzQMJglpw-1" value="" style="rounded=0;whiteSpace=wrap;html=1;" vertex="1" parent="1">
          <mxGeometry x="90" y="30" width="370" height="60" as="geometry" />
        </mxCell>
        <mxCell id="j6VodlIpWfJqzQMJglpw-2" value="" style="rounded=0;whiteSpace=wrap;html=1;" vertex="1" parent="1">
          <mxGeometry x="90" y="110" width="370" height="60" as="geometry" />
        </mxCell>
        <mxCell id="j6VodlIpWfJqzQMJglpw-3" value="&lt;font style=&quot;font-size: 15px;&quot;&gt;1&lt;/font&gt;" style="rounded=0;whiteSpace=wrap;html=1;fillColor=#d5e8d4;strokeColor=#82b366;" vertex="1" parent="1">
          <mxGeometry x="100" y="35" width="50" height="50" as="geometry" />
        </mxCell>
        <mxCell id="j6VodlIpWfJqzQMJglpw-4" value="&lt;font style=&quot;font-size: 20px;&quot;&gt;S1&lt;/font&gt;" style="text;html=1;align=center;verticalAlign=middle;resizable=0;points=[];autosize=1;strokeColor=none;fillColor=none;" vertex="1" parent="1">
          <mxGeometry x="25" y="40" width="50" height="40" as="geometry" />
        </mxCell>
        <mxCell id="j6VodlIpWfJqzQMJglpw-5" value="&lt;font style=&quot;font-size: 20px;&quot;&gt;S2&lt;/font&gt;" style="text;html=1;align=center;verticalAlign=middle;resizable=0;points=[];autosize=1;strokeColor=none;fillColor=none;" vertex="1" parent="1">
          <mxGeometry x="25" y="120" width="50" height="40" as="geometry" />
        </mxCell>
        <mxCell id="j6VodlIpWfJqzQMJglpw-9" value="" style="shape=flexArrow;endArrow=classic;html=1;rounded=0;" edge="1" parent="1">
          <mxGeometry width="50" height="50" relative="1" as="geometry">
            <mxPoint x="560" y="59.5" as="sourcePoint" />
            <mxPoint x="470" y="59.5" as="targetPoint" />
          </mxGeometry>
        </mxCell>
        <mxCell id="j6VodlIpWfJqzQMJglpw-10" value="&lt;font style=&quot;font-size: 18px;&quot;&gt;PUSH&lt;/font&gt;" style="text;html=1;align=center;verticalAlign=middle;resizable=0;points=[];autosize=1;strokeColor=none;fillColor=none;" vertex="1" parent="1">
          <mxGeometry x="560" y="40" width="70" height="40" as="geometry" />
        </mxCell>
        <mxCell id="j6VodlIpWfJqzQMJglpw-11" value="&lt;font style=&quot;font-size: 20px;&quot;&gt;2&lt;/font&gt;" style="rounded=0;whiteSpace=wrap;html=1;fillColor=#d5e8d4;strokeColor=#82b366;" vertex="1" parent="1">
          <mxGeometry x="160" y="35" width="50" height="50" as="geometry" />
        </mxCell>
        <mxCell id="j6VodlIpWfJqzQMJglpw-12" value="&lt;div&gt;&lt;font size=&quot;3&quot;&gt;3&lt;/font&gt;&lt;/div&gt;" style="rounded=0;whiteSpace=wrap;html=1;fillColor=#d5e8d4;strokeColor=#82b366;" vertex="1" parent="1">
          <mxGeometry x="390" y="35" width="50" height="50" as="geometry" />
        </mxCell>
        <mxCell id="j6VodlIpWfJqzQMJglpw-20" value="" style="rounded=0;whiteSpace=wrap;html=1;" vertex="1" parent="1">
          <mxGeometry x="90" y="260" width="370" height="60" as="geometry" />
        </mxCell>
        <mxCell id="j6VodlIpWfJqzQMJglpw-21" value="" style="rounded=0;whiteSpace=wrap;html=1;" vertex="1" parent="1">
          <mxGeometry x="90" y="340" width="370" height="60" as="geometry" />
        </mxCell>
        <mxCell id="j6VodlIpWfJqzQMJglpw-23" value="&lt;font style=&quot;font-size: 20px;&quot;&gt;S1&lt;/font&gt;" style="text;html=1;align=center;verticalAlign=middle;resizable=0;points=[];autosize=1;strokeColor=none;fillColor=none;" vertex="1" parent="1">
          <mxGeometry x="25" y="270" width="50" height="40" as="geometry" />
        </mxCell>
        <mxCell id="j6VodlIpWfJqzQMJglpw-24" value="&lt;font style=&quot;font-size: 20px;&quot;&gt;S2&lt;/font&gt;" style="text;html=1;align=center;verticalAlign=middle;resizable=0;points=[];autosize=1;strokeColor=none;fillColor=none;" vertex="1" parent="1">
          <mxGeometry x="25" y="350" width="50" height="40" as="geometry" />
        </mxCell>
        <mxCell id="j6VodlIpWfJqzQMJglpw-25" value="" style="shape=flexArrow;endArrow=classic;html=1;rounded=0;" edge="1" parent="1">
          <mxGeometry width="50" height="50" relative="1" as="geometry">
            <mxPoint x="465" y="369.5" as="sourcePoint" />
            <mxPoint x="565" y="370" as="targetPoint" />
          </mxGeometry>
        </mxCell>
        <mxCell id="j6VodlIpWfJqzQMJglpw-26" value="&lt;font style=&quot;font-size: 18px;&quot;&gt;POP&lt;/font&gt;" style="text;html=1;align=center;verticalAlign=middle;resizable=0;points=[];autosize=1;strokeColor=none;fillColor=none;" vertex="1" parent="1">
          <mxGeometry x="565" y="350" width="60" height="40" as="geometry" />
        </mxCell>
        <mxCell id="j6VodlIpWfJqzQMJglpw-29" value="&lt;font style=&quot;font-size: 18px;&quot;&gt;3&lt;/font&gt;" style="rounded=0;whiteSpace=wrap;html=1;fillColor=#d5e8d4;strokeColor=#82b366;" vertex="1" parent="1">
          <mxGeometry x="100" y="345" width="50" height="50" as="geometry" />
        </mxCell>
        <mxCell id="j6VodlIpWfJqzQMJglpw-30" value="&lt;font style=&quot;font-size: 20px;&quot;&gt;2&lt;/font&gt;" style="rounded=0;whiteSpace=wrap;html=1;fillColor=#d5e8d4;strokeColor=#82b366;" vertex="1" parent="1">
          <mxGeometry x="160" y="345" width="50" height="50" as="geometry" />
        </mxCell>
        <mxCell id="j6VodlIpWfJqzQMJglpw-31" value="&lt;font size=&quot;3&quot;&gt;1&lt;/font&gt;" style="rounded=0;whiteSpace=wrap;html=1;fillColor=#d5e8d4;strokeColor=#82b366;" vertex="1" parent="1">
          <mxGeometry x="440" y="345" width="50" height="50" as="geometry" />
        </mxCell>
        <mxCell id="j6VodlIpWfJqzQMJglpw-33" value="&lt;font style=&quot;font-size: 18px;&quot;&gt;如果S2有東西就從S2 出&lt;/font&gt;" style="text;html=1;align=center;verticalAlign=middle;resizable=0;points=[];autosize=1;strokeColor=none;fillColor=none;" vertex="1" parent="1">
          <mxGeometry x="90" y="220" width="220" height="40" as="geometry" />
        </mxCell>
        <mxCell id="j6VodlIpWfJqzQMJglpw-34" value="" style="rounded=0;whiteSpace=wrap;html=1;" vertex="1" parent="1">
          <mxGeometry x="85" y="470" width="370" height="60" as="geometry" />
        </mxCell>
        <mxCell id="j6VodlIpWfJqzQMJglpw-35" value="" style="rounded=0;whiteSpace=wrap;html=1;" vertex="1" parent="1">
          <mxGeometry x="85" y="550" width="370" height="60" as="geometry" />
        </mxCell>
        <mxCell id="j6VodlIpWfJqzQMJglpw-36" value="&lt;font style=&quot;font-size: 20px;&quot;&gt;S1&lt;/font&gt;" style="text;html=1;align=center;verticalAlign=middle;resizable=0;points=[];autosize=1;strokeColor=none;fillColor=none;" vertex="1" parent="1">
          <mxGeometry x="20" y="480" width="50" height="40" as="geometry" />
        </mxCell>
        <mxCell id="j6VodlIpWfJqzQMJglpw-37" value="&lt;font style=&quot;font-size: 20px;&quot;&gt;S2&lt;/font&gt;" style="text;html=1;align=center;verticalAlign=middle;resizable=0;points=[];autosize=1;strokeColor=none;fillColor=none;" vertex="1" parent="1">
          <mxGeometry x="20" y="560" width="50" height="40" as="geometry" />
        </mxCell>
        <mxCell id="j6VodlIpWfJqzQMJglpw-38" value="" style="shape=flexArrow;endArrow=classic;html=1;rounded=0;" edge="1" parent="1">
          <mxGeometry width="50" height="50" relative="1" as="geometry">
            <mxPoint x="460" y="579.5" as="sourcePoint" />
            <mxPoint x="560" y="580" as="targetPoint" />
          </mxGeometry>
        </mxCell>
        <mxCell id="j6VodlIpWfJqzQMJglpw-39" value="POP" style="text;html=1;align=center;verticalAlign=middle;resizable=0;points=[];autosize=1;strokeColor=none;fillColor=none;" vertex="1" parent="1">
          <mxGeometry x="565" y="565" width="50" height="30" as="geometry" />
        </mxCell>
        <mxCell id="j6VodlIpWfJqzQMJglpw-40" value="&lt;font style=&quot;font-size: 18px;&quot;&gt;3&lt;/font&gt;" style="rounded=0;whiteSpace=wrap;html=1;fillColor=#d5e8d4;strokeColor=#82b366;" vertex="1" parent="1">
          <mxGeometry x="95" y="555" width="50" height="50" as="geometry" />
        </mxCell>
        <mxCell id="j6VodlIpWfJqzQMJglpw-41" value="&lt;font style=&quot;font-size: 20px;&quot;&gt;2&lt;/font&gt;" style="rounded=0;whiteSpace=wrap;html=1;fillColor=#d5e8d4;strokeColor=#82b366;" vertex="1" parent="1">
          <mxGeometry x="155" y="555" width="50" height="50" as="geometry" />
        </mxCell>
        <mxCell id="j6VodlIpWfJqzQMJglpw-42" value="&lt;font size=&quot;3&quot;&gt;1&lt;/font&gt;" style="rounded=0;whiteSpace=wrap;html=1;fillColor=#d5e8d4;strokeColor=#82b366;" vertex="1" parent="1">
          <mxGeometry x="215" y="555" width="50" height="50" as="geometry" />
        </mxCell>
        <mxCell id="j6VodlIpWfJqzQMJglpw-43" value="&lt;font style=&quot;font-size: 18px;&quot;&gt;如果S2，沒有東西就從S1 先reverse，再搬過去&lt;br&gt;&lt;/font&gt;" style="text;html=1;align=center;verticalAlign=middle;resizable=0;points=[];autosize=1;strokeColor=none;fillColor=none;" vertex="1" parent="1">
          <mxGeometry x="75" y="430" width="400" height="40" as="geometry" />
        </mxCell>
        <mxCell id="j6VodlIpWfJqzQMJglpw-48" value="" style="html=1;shadow=0;dashed=0;align=center;verticalAlign=middle;shape=mxgraph.arrows2.uTurnArrow;dy=11;arrowHead=43;dx2=25;rotation=-180;" vertex="1" parent="1">
          <mxGeometry x="280" y="495" width="100" height="100" as="geometry" />
        </mxCell>
        <mxCell id="j6VodlIpWfJqzQMJglpw-49" value="&lt;font style=&quot;font-size: 15px;&quot;&gt;1&lt;/font&gt;" style="rounded=0;whiteSpace=wrap;html=1;dashed=1;" vertex="1" parent="1">
          <mxGeometry x="95" y="475" width="50" height="50" as="geometry" />
        </mxCell>
        <mxCell id="j6VodlIpWfJqzQMJglpw-50" value="&lt;font style=&quot;font-size: 20px;&quot;&gt;2&lt;/font&gt;" style="rounded=0;whiteSpace=wrap;html=1;dashed=1;" vertex="1" parent="1">
          <mxGeometry x="155" y="475" width="50" height="50" as="geometry" />
        </mxCell>
        <mxCell id="j6VodlIpWfJqzQMJglpw-51" value="&lt;div&gt;&lt;font size=&quot;3&quot;&gt;3&lt;/font&gt;&lt;/div&gt;" style="rounded=0;whiteSpace=wrap;html=1;dashed=1;" vertex="1" parent="1">
          <mxGeometry x="215" y="475" width="50" height="50" as="geometry" />
        </mxCell>
        <mxCell id="j6VodlIpWfJqzQMJglpw-52" value="" style="endArrow=none;html=1;rounded=0;" edge="1" parent="1">
          <mxGeometry width="50" height="50" relative="1" as="geometry">
            <mxPoint y="210" as="sourcePoint" />
            <mxPoint x="650" y="210" as="targetPoint" />
          </mxGeometry>
        </mxCell>
        <mxCell id="j6VodlIpWfJqzQMJglpw-53" value="&lt;font style=&quot;font-size: 18px;&quot;&gt;PUSH&lt;/font&gt;" style="text;html=1;align=center;verticalAlign=middle;resizable=0;points=[];autosize=1;strokeColor=none;fillColor=none;" vertex="1" parent="1">
          <mxGeometry y="-20" width="70" height="40" as="geometry" />
        </mxCell>
        <mxCell id="j6VodlIpWfJqzQMJglpw-54" value="&lt;font style=&quot;font-size: 18px;&quot;&gt;POP&lt;/font&gt;" style="text;html=1;align=center;verticalAlign=middle;resizable=0;points=[];autosize=1;strokeColor=none;fillColor=none;" vertex="1" parent="1">
          <mxGeometry y="210" width="60" height="40" as="geometry" />
        </mxCell>
        <mxCell id="j6VodlIpWfJqzQMJglpw-56" value="" style="endArrow=none;html=1;rounded=0;" edge="1" parent="1">
          <mxGeometry width="50" height="50" relative="1" as="geometry">
            <mxPoint y="630" as="sourcePoint" />
            <mxPoint x="650" y="630" as="targetPoint" />
          </mxGeometry>
        </mxCell>
        <mxCell id="j6VodlIpWfJqzQMJglpw-57" value="&lt;font style=&quot;font-size: 18px;&quot;&gt;PEEK&lt;/font&gt;" style="text;html=1;align=center;verticalAlign=middle;resizable=0;points=[];autosize=1;strokeColor=none;fillColor=none;" vertex="1" parent="1">
          <mxGeometry x="-5" y="630" width="70" height="40" as="geometry" />
        </mxCell>
        <mxCell id="j6VodlIpWfJqzQMJglpw-65" value="" style="rounded=0;whiteSpace=wrap;html=1;" vertex="1" parent="1">
          <mxGeometry x="85" y="692" width="370" height="60" as="geometry" />
        </mxCell>
        <mxCell id="j6VodlIpWfJqzQMJglpw-66" value="" style="rounded=0;whiteSpace=wrap;html=1;" vertex="1" parent="1">
          <mxGeometry x="85" y="772" width="370" height="60" as="geometry" />
        </mxCell>
        <mxCell id="j6VodlIpWfJqzQMJglpw-67" value="&lt;font style=&quot;font-size: 20px;&quot;&gt;S1&lt;/font&gt;" style="text;html=1;align=center;verticalAlign=middle;resizable=0;points=[];autosize=1;strokeColor=none;fillColor=none;" vertex="1" parent="1">
          <mxGeometry x="20" y="702" width="50" height="40" as="geometry" />
        </mxCell>
        <mxCell id="j6VodlIpWfJqzQMJglpw-68" value="&lt;font style=&quot;font-size: 20px;&quot;&gt;S2&lt;/font&gt;" style="text;html=1;align=center;verticalAlign=middle;resizable=0;points=[];autosize=1;strokeColor=none;fillColor=none;" vertex="1" parent="1">
          <mxGeometry x="20" y="782" width="50" height="40" as="geometry" />
        </mxCell>
        <mxCell id="j6VodlIpWfJqzQMJglpw-69" value="&lt;font style=&quot;font-size: 18px;&quot;&gt;3&lt;/font&gt;" style="rounded=0;whiteSpace=wrap;html=1;fillColor=#d5e8d4;strokeColor=#82b366;" vertex="1" parent="1">
          <mxGeometry x="95" y="777" width="50" height="50" as="geometry" />
        </mxCell>
        <mxCell id="j6VodlIpWfJqzQMJglpw-70" value="&lt;font style=&quot;font-size: 20px;&quot;&gt;2&lt;/font&gt;" style="rounded=0;whiteSpace=wrap;html=1;fillColor=#f8cecc;strokeColor=#b85450;" vertex="1" parent="1">
          <mxGeometry x="155" y="777" width="50" height="50" as="geometry" />
        </mxCell>
        <mxCell id="j6VodlIpWfJqzQMJglpw-72" value="&lt;font style=&quot;font-size: 18px;&quot;&gt;4&lt;/font&gt;" style="rounded=0;whiteSpace=wrap;html=1;fillColor=#d5e8d4;strokeColor=#82b366;" vertex="1" parent="1">
          <mxGeometry x="95" y="697" width="50" height="50" as="geometry" />
        </mxCell>
        <mxCell id="j6VodlIpWfJqzQMJglpw-73" value="&lt;font size=&quot;3&quot;&gt;5&lt;/font&gt;" style="rounded=0;whiteSpace=wrap;html=1;fillColor=#d5e8d4;strokeColor=#82b366;" vertex="1" parent="1">
          <mxGeometry x="155" y="697" width="50" height="50" as="geometry" />
        </mxCell>
        <mxCell id="j6VodlIpWfJqzQMJglpw-74" value="&lt;font style=&quot;font-size: 18px;&quot;&gt;如果S2有東西，S2最後的值，就是最早進去的&lt;br&gt;&lt;/font&gt;" style="text;html=1;align=center;verticalAlign=middle;resizable=0;points=[];autosize=1;strokeColor=none;fillColor=none;" vertex="1" parent="1">
          <mxGeometry x="70" y="652" width="390" height="40" as="geometry" />
        </mxCell>
        <mxCell id="j6VodlIpWfJqzQMJglpw-92" value="" style="rounded=0;whiteSpace=wrap;html=1;" vertex="1" parent="1">
          <mxGeometry x="80" y="900" width="370" height="60" as="geometry" />
        </mxCell>
        <mxCell id="j6VodlIpWfJqzQMJglpw-93" value="" style="rounded=0;whiteSpace=wrap;html=1;" vertex="1" parent="1">
          <mxGeometry x="80" y="980" width="370" height="60" as="geometry" />
        </mxCell>
        <mxCell id="j6VodlIpWfJqzQMJglpw-94" value="&lt;font style=&quot;font-size: 20px;&quot;&gt;S1&lt;/font&gt;" style="text;html=1;align=center;verticalAlign=middle;resizable=0;points=[];autosize=1;strokeColor=none;fillColor=none;" vertex="1" parent="1">
          <mxGeometry x="15" y="910" width="50" height="40" as="geometry" />
        </mxCell>
        <mxCell id="j6VodlIpWfJqzQMJglpw-95" value="&lt;font style=&quot;font-size: 20px;&quot;&gt;S2&lt;/font&gt;" style="text;html=1;align=center;verticalAlign=middle;resizable=0;points=[];autosize=1;strokeColor=none;fillColor=none;" vertex="1" parent="1">
          <mxGeometry x="15" y="990" width="50" height="40" as="geometry" />
        </mxCell>
        <mxCell id="j6VodlIpWfJqzQMJglpw-98" value="&lt;font style=&quot;font-size: 18px;&quot;&gt;4&lt;/font&gt;" style="rounded=0;whiteSpace=wrap;html=1;fillColor=#f8cecc;strokeColor=#b85450;" vertex="1" parent="1">
          <mxGeometry x="90" y="905" width="50" height="50" as="geometry" />
        </mxCell>
        <mxCell id="j6VodlIpWfJqzQMJglpw-99" value="&lt;font size=&quot;3&quot;&gt;5&lt;/font&gt;" style="rounded=0;whiteSpace=wrap;html=1;fillColor=#d5e8d4;strokeColor=#82b366;" vertex="1" parent="1">
          <mxGeometry x="150" y="905" width="50" height="50" as="geometry" />
        </mxCell>
        <mxCell id="j6VodlIpWfJqzQMJglpw-100" value="&lt;font style=&quot;font-size: 18px;&quot;&gt;如果S2沒有東西，S1 第一個的值，就是最早進去的&lt;br&gt;&lt;/font&gt;" style="text;html=1;align=center;verticalAlign=middle;resizable=0;points=[];autosize=1;strokeColor=none;fillColor=none;" vertex="1" parent="1">
          <mxGeometry x="45" y="860" width="430" height="40" as="geometry" />
        </mxCell>
      </root>
    </mxGraphModel>
  </diagram>
</mxfile>
